<?xml version="1.0" encoding="utf-8"?>
<!-- Generator: Adobe Illustrator 24.2.0, SVG Export Plug-In . SVG Version: 6.00 Build 0)  -->
<svg version="1.1" id="Layer_1" xmlns="http://www.w3.org/2000/svg" xmlns:xlink="http://www.w3.org/1999/xlink" x="0px" y="0px"
	 viewBox="0 0 421.28 107.38" style="enable-background:new 0 0 421.28 107.38;" xml:space="preserve">
<style type="text/css">
	.st0{fill:#F67615;}
	.st1{fill:#595A5C;}
</style>
<g>
	<g>
		<path class="st0" d="M-163.87-131.72h-3.93v8.01h-5.43v-24.36h11.56c5.88,0,9.01,3.93,9.01,8.21c0,3.17-1.01,5.99-5.64,7.66
			l6.68,8.08v0.42h-6.02L-163.87-131.72z M-161.61-136.31c2.51,0,3.58-1.88,3.58-3.41c0-1.67-1.15-3.69-3.65-3.69h-6.13v7.1H-161.61
			z"/>
		<path class="st0" d="M-141.52-127.47c1.36,0,3.24-0.28,4.46-1.36l2.82,3.13c-1.84,1.81-4.77,2.54-7.38,2.54
			c-6.23,0-9.64-3.76-9.64-9.22c0-5.19,3.55-8.88,9.12-8.88c5.19,0,8.77,2.82,8.77,8.35c0,0.73-0.03,1.5-0.17,2.33h-12.63
			C-145.94-128.9-144.34-127.47-141.52-127.47z M-142.15-136.97c-2.05,0-3.52,1.04-4.04,2.75h8.14
			C-138.14-136.07-140.06-136.97-142.15-136.97z"/>
		<path class="st0" d="M-122.69-123.16c-5.01,0-9.4-2.85-9.4-9.05c0-5.78,4.35-9.08,9.36-9.08c2.51,0,4.46,0.52,6.23,2.44
			l-2.78,3.17c-1.08-0.8-2.16-1.01-3.24-1.01c-2.51,0-4.52,1.6-4.52,4.49c0,2.75,2.09,4.32,4.42,4.32c1.11,0,2.65-0.45,3.48-1.29
			l3.17,3.27C-118.06-123.71-120.46-123.16-122.69-123.16z"/>
		<path class="st0" d="M-115.76-132.27c0-5.19,3.69-9.01,9.4-9.01c5.74,0,9.43,3.83,9.43,9.01c0,5.5-3.58,9.12-9.43,9.12
			S-115.76-126.77-115.76-132.27z M-102.01-132.27c0-2.16-1.32-4.52-4.35-4.52c-2.96,0-4.32,2.37-4.32,4.52
			c0,2.33,1.25,4.66,4.32,4.66S-102.01-129.84-102.01-132.27z"/>
		<path class="st0" d="M-85.72-136.8c-2.33,0-3.9,1.95-3.9,4.21v8.88h-4.94v-17.19h4.52l0.17,2.19c1.5-1.95,3.38-2.58,5.4-2.58
			c3.97,0,7.34,1.67,7.34,8.46v9.12h-5.05v-9.08C-82.17-135.48-83.35-136.8-85.72-136.8z"/>
		<path class="st0" d="M-60.9-131.16l-7.27-9.54v17.02h-5.43v-24.36h6.23l7.1,9.36l7.13-9.36h6.16v24.36h-5.43v-16.95l-7.52,9.47
			H-60.9z"/>
		<path class="st0" d="M-25.43-123.71h-4.52l-0.28-2.16c-1.11,1.95-3.62,2.68-5.29,2.68c-5.15,0-8.88-3.45-8.88-9.12
			c0-5.6,3.83-8.98,8.77-8.98c2.3,0,4.35,0.8,5.33,2.37l0.17-1.98h4.7V-123.71z M-39.38-132.31c0,2.85,2.02,4.52,4.53,4.52
			c2.82,0,4.56-2.23,4.56-4.35c0-2.47-1.6-4.73-4.56-4.73C-37.36-136.87-39.38-135.16-39.38-132.31z"/>
		<path class="st0" d="M-10.88-140.8v4.18h-4.39v6.61c0,1.81,1.01,2.3,1.95,2.3c0.59,0,1.53-0.14,2.09-0.42l1.15,4.18
			c-1.25,0.52-2.26,0.66-3.62,0.77c-3.72,0.17-6.54-1.46-6.54-6.82v-6.61h-3.06v-4.18h3.06v-4.25l5.01-0.56v4.8H-10.88z"/>
		<path class="st0" d="M0.44-127.47c1.36,0,3.24-0.28,4.46-1.36l2.82,3.13c-1.84,1.81-4.77,2.54-7.38,2.54
			c-6.23,0-9.64-3.76-9.64-9.22c0-5.19,3.55-8.88,9.12-8.88c5.19,0,8.77,2.82,8.77,8.35c0,0.73-0.03,1.5-0.17,2.33H-4.22
			C-3.98-128.9-2.38-127.47,0.44-127.47z M-0.19-136.97c-2.05,0-3.52,1.04-4.04,2.75h8.14C3.82-136.07,1.9-136.97-0.19-136.97z"/>
	</g>
	<g>
		<path class="st0" d="M-201.41-108.72L-201.41-108.72c-1.5,0-2.72-1.22-2.72-2.72v-48.02c0-1.5,1.22-2.72,2.72-2.72h0
			c1.5,0,2.72,1.22,2.72,2.72v48.02C-198.69-109.93-199.91-108.72-201.41-108.72z"/>
		<path class="st0" d="M-210.64-128.21L-210.64-128.21c-1.5,0-2.72-1.22-2.72-2.72v-22.2c0-1.5,1.22-2.72,2.72-2.72l0,0
			c1.5,0,2.72,1.22,2.72,2.72v22.2C-207.92-129.43-209.14-128.21-210.64-128.21z"/>
		<path class="st0" d="M-192.18-116.21L-192.18-116.21c-1.5,0-2.72-1.22-2.72-2.72V-144c0-1.5,1.22-2.72,2.72-2.72l0,0
			c1.5,0,2.72,1.22,2.72,2.72v25.06C-189.46-117.43-190.68-116.21-192.18-116.21z"/>
		<path class="st0" d="M-219.87-115.7L-219.87-115.7c-1.5,0-2.72-1.22-2.72-2.72v-41.79c0-1.5,1.22-2.72,2.72-2.72h0
			c1.5,0,2.72,1.22,2.72,2.72v41.79C-217.14-116.92-218.36-115.7-219.87-115.7z"/>
		<path class="st0" d="M-229.1-108.3L-229.1-108.3c-1.5,0-2.72-1.22-2.72-2.72v-16.29c0-1.5,1.22-2.72,2.72-2.72l0,0
			c1.5,0,2.72,1.22,2.72,2.72v16.29C-226.37-109.52-227.59-108.3-229.1-108.3z"/>
	</g>
</g>
<g>
	<path d="M1056.7,478.13c45.43,0.73,86.24-10.69,118.68-45.08c32.52,34.29,73.27,45.89,119.86,45.02
		c0.31,15.99,1.51,31.45,0.74,46.82c-2.22,44.65-14.77,86.18-40.16,123.36c-20.13,29.48-46.49,52.07-77.74,69.05
		c-1.49,0.81-4.28,0.63-5.83-0.23c-63.73-35.4-101.13-89.55-113.98-160.95C1053.67,530.55,1052.89,504.81,1056.7,478.13z
		 M1068.13,490.62c-0.31,2.69-0.73,4.99-0.83,7.29c-0.97,23.08,0.64,45.95,5.92,68.49c13.79,58.92,45.94,104.56,98.18,135.69
		c2.45,1.46,4.36,2.2,7.23,0.5c31.53-18.57,57.09-43.18,75.24-75.02c23.1-40.52,31.74-84.43,29.6-130.77
		c-0.24-5.26-1.94-6.43-6.94-6.6c-32.98-1.07-63.15-10.86-90.05-30.19c-3.87-2.78-7.43-5.99-11.12-9
		C1144.7,477.93,1108.71,489.64,1068.13,490.62z"/>
	<path d="M1271.19,501.33c1.42,24.51-0.74,47.92-6.77,70.99c-12.82,49.13-40.54,87.37-83.32,114.79c-4.27,2.74-7.22,2.66-11.5-0.08
		c-51.45-32.96-79.78-80.49-88.2-140.28c-2.08-14.74-2.03-29.77-3-45.32c36.78-1.9,69.17-12.41,96.98-35.51
		C1203.18,488.89,1235.36,499.51,1271.19,501.33z"/>
</g>
<g>
	<g>
		<path class="st1" d="M130.32,78.72l-8.11-11.63c-0.34,0.04-0.85,0.06-1.53,0.06h-8.96v11.57h-7.37v-39.7h16.34
			c3.44,0,6.44,0.57,8.99,1.7c2.55,1.14,4.51,2.76,5.87,4.88c1.36,2.12,2.04,4.63,2.04,7.54c0,2.99-0.73,5.56-2.18,7.72
			c-1.46,2.15-3.54,3.76-6.27,4.82l9.13,13.05H130.32z M127.66,47.29c-1.66-1.36-4.1-2.04-7.32-2.04h-8.62v15.82h8.62
			c3.21,0,5.65-0.69,7.32-2.07c1.66-1.38,2.5-3.34,2.5-5.87C130.15,50.6,129.32,48.66,127.66,47.29z"/>
		<path class="st1" d="M172.07,65.84H148.3c0.42,2.23,1.5,4,3.26,5.3c1.76,1.3,3.94,1.96,6.55,1.96c3.33,0,6.07-1.1,8.22-3.29
			l3.8,4.37c-1.36,1.63-3.08,2.86-5.16,3.69c-2.08,0.83-4.42,1.25-7.03,1.25c-3.33,0-6.26-0.66-8.79-1.98
			c-2.53-1.32-4.49-3.17-5.87-5.53c-1.38-2.36-2.07-5.04-2.07-8.03c0-2.95,0.67-5.61,2.01-7.97c1.34-2.36,3.2-4.21,5.59-5.53
			c2.38-1.32,5.07-1.98,8.05-1.98c2.95,0,5.59,0.65,7.91,1.96c2.33,1.3,4.14,3.14,5.45,5.5c1.3,2.36,1.96,5.1,1.96,8.2
			C172.18,64.23,172.15,64.93,172.07,65.84z M151.11,55.77c-1.57,1.34-2.52,3.13-2.86,5.36h17.19c-0.3-2.19-1.23-3.97-2.78-5.33
			c-1.55-1.36-3.48-2.04-5.79-2.04C154.6,53.76,152.68,54.43,151.11,55.77z"/>
		<path class="st1" d="M183.02,77.13c-2.5-1.32-4.44-3.17-5.84-5.53c-1.4-2.36-2.1-5.04-2.1-8.03c0-2.99,0.7-5.65,2.1-8
			c1.4-2.35,3.34-4.18,5.81-5.5c2.48-1.32,5.3-1.98,8.48-1.98c2.99,0,5.61,0.61,7.86,1.82c2.25,1.21,3.94,2.95,5.08,5.22l-5.45,3.17
			c-0.87-1.4-1.96-2.45-3.26-3.15c-1.3-0.7-2.73-1.05-4.28-1.05c-2.65,0-4.84,0.86-6.58,2.58s-2.61,4.02-2.61,6.89
			c0,2.88,0.86,5.17,2.58,6.89c1.72,1.72,3.92,2.58,6.61,2.58c1.55,0,2.98-0.35,4.28-1.05c1.3-0.7,2.39-1.75,3.26-3.15l5.45,3.18
			c-1.17,2.27-2.88,4.02-5.13,5.25c-2.25,1.23-4.85,1.84-7.8,1.84C188.33,79.11,185.51,78.45,183.02,77.13z"/>
		<path class="st1" d="M213.99,77.13c-2.46-1.32-4.38-3.17-5.76-5.53c-1.38-2.36-2.07-5.04-2.07-8.03c0-2.99,0.69-5.65,2.07-8
			c1.38-2.35,3.3-4.18,5.76-5.5c2.46-1.32,5.22-1.98,8.28-1.98c3.1,0,5.88,0.66,8.34,1.98c2.46,1.32,4.38,3.16,5.76,5.5
			c1.38,2.35,2.07,5.01,2.07,8c0,2.99-0.69,5.66-2.07,8.03c-1.38,2.36-3.3,4.21-5.76,5.53c-2.46,1.32-5.24,1.98-8.34,1.98
			C219.21,79.11,216.44,78.45,213.99,77.13z M228.74,70.44c1.7-1.74,2.55-4.03,2.55-6.86c0-2.84-0.85-5.12-2.55-6.86
			c-1.7-1.74-3.86-2.61-6.47-2.61c-2.61,0-4.76,0.87-6.44,2.61c-1.68,1.74-2.52,4.03-2.52,6.86c0,2.84,0.84,5.13,2.52,6.86
			c1.68,1.74,3.83,2.61,6.44,2.61C224.88,73.05,227.03,72.18,228.74,70.44z"/>
		<path class="st1" d="M270.2,51.43c2.31,2.23,3.46,5.54,3.46,9.93v17.36h-7.09V62.27c0-2.65-0.62-4.64-1.87-5.98
			c-1.25-1.34-3.03-2.01-5.33-2.01c-2.61,0-4.67,0.79-6.18,2.35c-1.51,1.57-2.27,3.83-2.27,6.78v15.31h-7.09V48.43h6.75v3.91
			c1.17-1.4,2.65-2.46,4.42-3.17c1.78-0.72,3.78-1.08,6.01-1.08C264.83,48.09,267.89,49.2,270.2,51.43z"/>
		<path class="st1" d="M318.41,78.72l-0.06-26.32l-13.05,21.78h-3.29l-13.05-21.44v25.98h-7.03v-39.7h6.07l15.77,26.32l15.48-26.32
			h6.07l0.06,39.7H318.41z"/>
		<path class="st1" d="M355.82,51.29c2.36,2.14,3.54,5.36,3.54,9.67v17.75h-6.69v-3.69c-0.87,1.32-2.11,2.34-3.72,3.04
			c-1.61,0.7-3.54,1.05-5.81,1.05c-2.27,0-4.25-0.39-5.96-1.16c-1.7-0.77-3.02-1.85-3.94-3.23c-0.93-1.38-1.39-2.94-1.39-4.68
			c0-2.72,1.01-4.91,3.03-6.55c2.02-1.65,5.21-2.47,9.56-2.47h7.83v-0.45c0-2.12-0.63-3.74-1.9-4.88c-1.27-1.14-3.15-1.7-5.64-1.7
			c-1.7,0-3.37,0.27-5.02,0.79c-1.64,0.53-3.03,1.27-4.17,2.21l-2.78-5.16c1.59-1.21,3.5-2.13,5.73-2.78
			c2.23-0.64,4.59-0.96,7.09-0.96C350.04,48.09,353.45,49.16,355.82,51.29z M349.35,72.73c1.38-0.81,2.35-1.98,2.92-3.49v-3.52
			h-7.32c-4.08,0-6.13,1.34-6.13,4.03c0,1.29,0.51,2.31,1.53,3.06c1.02,0.76,2.44,1.13,4.25,1.13
			C346.39,73.95,347.97,73.55,349.35,72.73z"/>
		<path class="st1" d="M385.23,77.07c-0.83,0.68-1.84,1.19-3.03,1.53c-1.19,0.34-2.45,0.51-3.77,0.51c-3.33,0-5.9-0.87-7.71-2.61
			c-1.82-1.74-2.72-4.27-2.72-7.6V54.33h-4.99v-5.67h4.99v-6.92h7.09v6.92h8.11v5.67h-8.11v14.41c0,1.48,0.36,2.6,1.08,3.37
			c0.72,0.78,1.76,1.16,3.12,1.16c1.59,0,2.91-0.42,3.97-1.25L385.23,77.07z"/>
		<path class="st1" d="M416.99,65.84h-23.77c0.42,2.23,1.5,4,3.26,5.3s3.94,1.96,6.55,1.96c3.33,0,6.07-1.1,8.22-3.29l3.8,4.37
			c-1.36,1.63-3.08,2.86-5.16,3.69c-2.08,0.83-4.42,1.25-7.03,1.25c-3.33,0-6.26-0.66-8.79-1.98c-2.53-1.32-4.49-3.17-5.87-5.53
			c-1.38-2.36-2.07-5.04-2.07-8.03c0-2.95,0.67-5.61,2.01-7.97c1.34-2.36,3.21-4.21,5.59-5.53c2.38-1.32,5.07-1.98,8.05-1.98
			c2.95,0,5.59,0.65,7.91,1.96c2.33,1.3,4.14,3.14,5.45,5.5s1.96,5.1,1.96,8.2C417.11,64.23,417.07,64.93,416.99,65.84z
			 M396.03,55.77c-1.57,1.34-2.53,3.13-2.86,5.36h17.19c-0.3-2.19-1.23-3.97-2.78-5.33s-3.48-2.04-5.78-2.04
			C399.52,53.76,397.6,54.43,396.03,55.77z"/>
	</g>
	<g>
		<g>
			<path class="st1" d="M55.77,20.3h-1.43c-1.06,0-1.92,0.86-1.92,1.92v76.3V99v4.26c1.82-1.25,3.56-2.56,5.26-3.91V99v-4.61V22.22
				C57.68,21.16,56.82,20.3,55.77,20.3z"/>
			<path class="st1" d="M46.85,51.88h-1.43c-1.06,0-1.92,0.86-1.92,1.92v47.01v0.03v2.44c0,0.52,0.42,0.95,0.95,0.95h4.31v-3.17
				V53.79C48.77,52.73,47.91,51.88,46.85,51.88z"/>
			<path class="st1" d="M37.94,27.93h-1.43c-1.06,0-1.92,0.86-1.92,1.92v64.22v0v3.83c0,1.06,0.86,1.92,1.92,1.92h2.45
				c0.49,0,0.89-0.4,0.89-0.89v-0.63v-0.03V29.84C39.86,28.79,39,27.93,37.94,27.93z"/>
			<path class="st1" d="M90.64,21l-0.1-1.73l-1.73-0.09c-16.38-0.83-29.88-5.82-41.27-15.23l-1.23-1.02l-1.23,1.02
				c-11.33,9.41-25,14.41-41.79,15.27l-1.95,0.1l0.12,1.95c0.14,2.17,0.23,4.35,0.32,6.46c0.2,4.74,0.39,9.21,1.03,13.75
				c3.16,22.44,12.61,40.73,28.14,54.56v-5.31v0v0v-29c0-1.45-1.18-2.63-2.63-2.63c-1.45,0-2.63,1.18-2.63,2.63V85.1v0.01
				c-0.43-0.51-0.87-1.01-1.29-1.53c-0.35-0.43-0.67-0.87-1.01-1.31c-0.54-0.7-1.09-1.41-1.61-2.13c-0.35-0.49-0.68-0.99-1.02-1.48
				c-0.48-0.7-0.95-1.39-1.41-2.1c-0.33-0.52-0.65-1.06-0.98-1.59c-0.43-0.7-0.85-1.41-1.26-2.13c-0.31-0.55-0.61-1.12-0.91-1.68
				c-0.38-0.72-0.76-1.45-1.13-2.18c-0.29-0.58-0.56-1.16-0.84-1.74c-0.35-0.75-0.68-1.5-1.01-2.26c-0.26-0.59-0.51-1.19-0.75-1.79
				c-0.31-0.78-0.61-1.57-0.9-2.36c-0.22-0.61-0.45-1.21-0.66-1.83c-0.28-0.82-0.55-1.66-0.81-2.49c-0.19-0.61-0.38-1.21-0.56-1.82
				c-0.26-0.88-0.49-1.79-0.72-2.69c-0.15-0.59-0.31-1.17-0.45-1.76c-0.24-1.01-0.45-2.04-0.66-3.07c-0.1-0.5-0.22-1-0.31-1.51
				c-0.29-1.55-0.55-3.12-0.78-4.71c-0.61-4.36-0.8-8.74-0.99-13.37c-0.06-1.51-0.13-3.05-0.21-4.6
				c16.18-1.15,29.59-6.08,40.89-15.04c11.38,8.99,24.68,13.92,40.55,15.01c0.43,10.14-0.56,19.68-3.02,29.11
				c-3.35,12.82-9.13,24-17.25,33.44V50.29c0-1.06-0.86-1.92-1.92-1.92h-1.43c-1.06,0-1.92,0.86-1.92,1.92v40.76v0.77v4.48
				C74.23,84.9,83.05,70.4,87.58,53.02C90.28,42.67,91.28,32.2,90.64,21z"/>
		</g>
	</g>
</g>
</svg>
