<?xml version="1.0" encoding="utf-8"?>
<!-- Generator: Adobe Illustrator 24.2.0, SVG Export Plug-In . SVG Version: 6.00 Build 0)  -->
<svg version="1.1" id="Layer_1" xmlns="http://www.w3.org/2000/svg" xmlns:xlink="http://www.w3.org/1999/xlink" x="0px" y="0px"
	 viewBox="0 0 3045.4 729.2" style="enable-background:new 0 0 3045.4 729.2;" xml:space="preserve">
<style type="text/css">
	.st0{display:none;fill:#FFFFFF;}
	.st1{fill-rule:evenodd;clip-rule:evenodd;fill:#FFFFFF;}
</style>
<g>
	<path class="st0" d="M-468.6,13.2c623.8,0,1247.6,0,1871.3,0c0,475.6,0,951.1,0,1426.7c-623.8,0-1247.6,0-1871.3,0
		C-468.6,964.4-468.6,488.8-468.6,13.2z M621.2,574c-3.2-0.6-6.4-1.2-9.5-1.9c-33-7.5-66.1-14.9-99.1-22.4c-1.6-0.4-3.3-1.3-5.1,0.2
		c0,0.9-0.2,1.9,0,2.8c8.4,37.2,16.8,74.4,25.3,111.6c0.1,0.6,0.6,1.2,1.2,2.2c3.6-2.2,6-5.5,8.9-8.1c3.1-2.8,5.7-6.1,9.5-8.8
		c3.4,3.3,6.7,6.3,9.9,9.4c18.1,17.5,36.1,35.2,55.8,50.9c51.9,41.2,111,65.3,176.8,72.5c20.1,2.2,40.3,2.4,60.5,0.8
		c19.9-1.6,39.6-4.5,59-9.3c58.9-14.6,110.4-42.8,154.2-84.8c44-42.2,74.3-92.8,91.3-151.3c6.8-23.5,11.1-47.6,12.4-72.1
		c1.7-32.3-1.5-64.3-8.9-95.8c-18-76.4-57.4-139.8-117.8-189.7c-60.2-49.8-130.4-73.7-208-76.8c-20.5-0.8-40.9,0.8-61.1,3.9
		c-34.8,5.3-67.9,15.8-99.5,31.2c-26.8,13.1-51,30.2-74.3,48.7c-30.1,23.9-58.3,50.1-85.7,77c-32.2,31.6-64.3,63.4-96.5,95.1
		c-5,4.9-10.2,9.5-15.4,14.2c-0.3,0.3-0.9,0.4-2.4,0.9c-1.1-1.4-2.4-3.2-3.9-4.9c-13.6-14.9-27.2-29.9-40.9-44.8
		c-23.5-25.5-47.6-50.5-73.2-73.9c-9.6-8.8-19.5-17.1-30.3-24.4c-39.3-26.7-82.7-40.2-130.1-40.6c-15.2-0.1-30.4,1.4-45.4,4.4
		c-49.9,9.8-93,32.3-128.3,69.1c-37.5,39-58.8,85.7-63.9,139.4c-2.1,22.1-1.5,44.3,2.4,66.4c5.2,29.1,15.2,56.3,30.9,81.3
		c36.6,58.3,101.6,103.9,177.7,111c19.5,1.8,38.9,2,58.2-0.7c32.5-4.6,63-15.3,90.7-32.9c12.2-7.7,23.9-16.3,35.4-25
		c25.1-19,48.2-40.3,70.6-62.4c20.4-20.1,40.5-40.7,60.8-61c11.5-11.5,23-22.8,34.5-34.3c3.2-3.2,6.2-6.5,9.4-9.7
		c9.5-9.2,19.1-18.3,28.5-27.6c22.2-21.9,44.6-43.6,66.5-65.8c18.1-18.3,36.4-36.3,55.5-53.5c23.7-21.4,48.2-41.9,74.6-60
		c41-28,86.5-42.5,136-45c25.3-1.3,50.3,1.2,74.9,7.3c51.8,12.7,96.2,38.3,132.3,77.6c38.5,41.8,60.9,91.3,67.5,147.8
		c3.3,28.2,2.4,56.3-3.7,84.1c-14.7,67.5-50.4,121.5-106.6,161.6c-43.6,31.2-92.7,46.8-146.2,48.1c-20,0.5-39.8-1.6-59.4-5.6
		c-38.7-7.9-74.1-23.5-105.4-47.6c-22.6-17.4-42.8-37.4-63-57.4c-0.5-0.5-0.6-1.3-0.9-2.1c5.3-5.4,10.5-10.8,15.7-16.2
		c2.1,1.7,4.3,3.3,6.2,5.2c14.4,14.6,29.3,28.5,45.1,41.6c39.2,32.6,84.1,51.2,134.9,54.8c22.7,1.6,45.3-0.2,67.7-5.1
		c93.6-20.4,174.8-100.1,184.4-207.6c2.1-24,1.5-47.9-3.8-71.4c-16.1-71.1-55.8-124.8-119.8-160.1c-28.5-15.8-59.3-24.3-91.8-27.2
		c-20.5-1.8-40.9-1.1-61.1,2.4c-34.9,6-66.7,19.6-95.9,39.7c-19.8,13.6-37.6,29.6-56,44.9c-1.1,1-2.3,2-3.2,3.1
		c-8.8,10.4-19.6,18.5-30.5,26.4c-0.8,0.6-1.8,1.1-2.2,1.9c-1.9,4.9-6.1,7.8-9.9,11c-1.9,1.6-3.8,3.1-4.9,5.5c-0.7,1.5-2,2.8-3.3,4
		c-16.8,16.8-33.5,33.5-50.4,50.2c-12.1,11.9-24.4,23.6-36.4,35.5c-30.4,30.2-60.1,61.2-91.4,90.6c-14.4,13.5-27.5,28.2-42.3,41.3
		c-7.1,6.3-13.5,13.3-20.4,19.8c-8.3,7.9-16.5,16-25.3,23.3c-13.9,11.7-28.5,22.7-43.5,33c-38.8,26.6-81.7,41.4-128.4,44.9
		c-23.2,1.7-46.3,0.6-69.3-3.7C18.9,671-27.4,647.3-65.8,609.2c-48.8-48.6-74.1-107.9-77.6-176.5c-1.2-23.3,1.2-46.3,6.6-69
		C-122,301-88.7,250.4-37.5,211.6C1.6,182,45.9,164.9,94.7,160.3c25.7-2.4,51.3-1.2,76.7,3.8c37.5,7.4,72,21.7,102.9,44.2
		c23.2,17,44.2,36.5,63.9,57.4c1.2,1.3,2.2,2.6,3.5,4.1c-2.6,4.7-7.9,6.9-10.6,11.3c0.6,0.6,0.8,1.1,1.2,1.3
		c37,11.2,73.9,22.4,110.9,33.5c0.6,0.2,1.4,0.1,2.5,0.1c-0.1-1.4-0.1-2.6-0.3-3.8c-2.2-15.3-4.6-30.6-6.8-45.9
		c-3.2-22.2-6.3-44.4-9.6-66.6c-0.1-1-0.9-2-1.6-3.5c-8.6,7.8-16.4,15.4-24.8,22.6c-3.4-2.1-5.8-4.7-8-7.3c-5.7-7-12.5-12.9-19-19
		c-6.5-6.2-13.2-12.2-19.7-18.3c-20.3-19-42.7-35.3-67-48.8c-41-22.9-85-36.7-131.7-41.4c-19.6-2-39.3-2.2-59-0.7
		C71.5,85.3,45.3,90,19.7,98c-48.4,15-91.4,39.5-128.8,73.7c-68.1,62.2-104.4,139.8-110.9,231.5c-2.6,35.8,0.9,71.3,10.2,106
		c18.3,68.4,53.7,126.5,107.3,172.8c63.6,54.8,138.4,80.7,221.9,82.2c24.3,0.4,48.3-2.3,72.1-7.2c55.6-11.5,104.6-36.7,149-71.5
		c14.5-11.4,28.8-23.1,42.2-35.7c11.3-10.6,22.7-21,33.9-31.6c6.7-6.3,13.1-13,19.7-19.4c8.1-7.8,16.5-15.2,24.4-23.2
		c21.4-21.3,42.5-42.9,63.8-64.3c6.8-6.9,13.9-13.6,21-20.6c3.7,4.3,7.2,8.5,10.7,12.7c10.9,13.3,22.4,26.1,34.9,37.9
		C602.4,551.4,611.7,562.8,621.2,574z M1103.7,962.4c2.6,0.1,5.2,0.3,7.9,0.3c55.4,0,110.8,0,166.1,0c2,0,4-0.1,6,0
		c9.8,0.5,15.7,6.4,15.8,16.2c0.1,14.7,0.1,29.4,0,44.2c0,1.4-0.5,2.7-0.9,4.4c-3.3,0-6.3,0-9.3,0c-58.6,0-117.2,0-175.9,0
		c-2,0-4-0.1-6,0c-1.4,0.1-2.8,0.5-4.3,0.7c-0.2,1.4-0.4,2.3-0.4,3.3c0,26.2-0.1,52.4,0.1,78.6c0,3.7,0.6,7.5,1.4,11.1
		c3.7,16.4,21.3,34.7,44.5,34.6c59.4-0.2,118.7,0,178.1-0.1c1.4,0,2.9-0.3,4.8-0.5c0.1-2.7,0.3-5.1,0.3-7.5c0-14.2,0-28.4,0-42.7
		c0-41.4,0-82.8,0-124.2c0-5.5-0.4-11-2-16.3c-5.9-20.2-24.1-33.6-46.1-33.6c-58.1-0.1-116.2,0-174.4,0c-1.9,0-3.9,0.2-5.7,0.3
		C1102.6,937.3,1102.5,955.2,1103.7,962.4z M907.2,1124.1c-3.6,0-6.3,0-9.1,0c-55.6,0-111.2,0-166.8,0c-2.5,0-5,0.1-7.5-0.1
		c-6.1-0.5-11.3-4.7-13-10.7c-0.6-2.1-0.8-4.4-0.9-6.6c-0.1-14.2-0.1-28.4,0-42.6c0-1.4,0.5-2.8,0.8-4.5c3.1,0,5.8,0,8.5,0
		c39.2,0,78.3,0,117.5,0c21.2,0,42.4,0,63.6,0c2.2,0,4.5,0.6,6.6-1.1c0.1-0.9,0.3-1.8,0.3-2.8c0-26.7,0.2-53.4-0.1-80.1
		c-0.2-21-16.5-38-33.9-42.8c-5.1-1.4-10.3-1.8-15.5-1.8c-43.4,0.1-86.8,0-130.2,0c-1.5,0-3,0-4.5,0c-19.7,0.7-37.8,14.8-43.1,33.6
		c-1.4,5.1-1.9,10.3-1.9,15.5c0.1,29.9,0,59.9,0,89.8c0,13.5-0.2,26.9,0.1,40.4c0.4,21.5,16.4,40.6,37.3,44.7
		c3.9,0.8,7.9,0.7,11.9,0.8c33.9,0.1,67.8,0,101.8,0c23.4,0,46.9,0,70.3,0c2.4,0,4.9,0.5,7.5-0.9
		C907.5,1144.9,907.4,1135,907.2,1124.1z M-19.6,1155.8L-19.6,1155.8c23.2,0,46.4,0,69.6,0c22.8,0,39-17.4,43.5-32
		c1.7-5.5,2.4-11.2,2.4-16.9c-0.1-33.2,0-66.3,0-99.5c0-10,0.1-20,0-29.9c-0.2-12.8-4.8-23.8-14-32.8c-8.9-8.8-19.7-13.4-32.2-13.6
		c-12.5-0.2-24.9-0.1-37.4-0.1c-33.2,0-66.3,0-99.5,0c-22.5,0-41.4,17.4-45.2,37.6c-0.7,3.9-0.8,7.9-0.8,11.9
		c-0.1,41.9,0,83.8,0,125.7c0,1.7,0,3.5,0,5.2c0.2,9.5,3.3,18.1,9.1,25.6c9.4,12.1,21.6,18.9,37.3,18.8
		C-64.5,1155.8-42.1,1155.8-19.6,1155.8z M-368,1155.1c1.4-2.5,0.7-5.3,0.7-8c0-54.1,0-108.3,0-162.4c0-2.5-0.1-5,0.1-7.5
		c0.5-6.6,4.5-11.8,11-13.6c2.4-0.7,4.9-0.9,7.4-0.9c42.9-0.1,85.8,0,128.7,0c2,0,4,0.1,5.9,0.5c7.2,1.5,11.7,6.9,12.1,14.2
		c0.1,2,0,4,0,6c0,26.4,0,52.9,0,79.3c0,28.2,0,56.4,0,84.6c0,2.7-0.7,5.5,0.8,7.9c8,1,25.4,0.8,31-0.4c0-2.6,0.1-5.3,0.1-8
		c0-24.2,0-48.4,0-72.6c0-30.7,0.1-61.4-0.1-92.1c0-5.4-0.3-11.1-1.6-16.3c-5.2-20.8-23.8-34.8-45.8-34.8c-58.4-0.1-116.8,0-175.2,0
		c-1.9,0-3.9,0.2-5.8,0.4c-0.3,1-0.8,1.7-0.8,2.4c0,73.1,0,146.2,0,219.3c0,0.7,0.4,1.4,0.6,2
		C-392.7,1156.1-374.3,1156.1-368,1155.1z M153.1,931c-6,0-11-0.1-15.9,0c-5.1,0.2-10.3-0.8-15.8,0.9c0,2.7,0,5.2,0,7.7
		c0,55.1,0,110.3,0,165.4c0,1.7,0,3.5,0,5.2c0.4,12,4.6,22.3,12.9,31c9.3,9.7,20.5,14.7,34,14.6c17.2-0.1,34.4,0,51.6,0
		c28.2,0,56.4-0.1,84.6,0c22.4,0.1,41.3-17.4,45-36.9c0.8-4.1,0.9-8.4,0.9-12.6c0.1-34.4,0-68.9,0-103.3c0-21.7,0-43.4,0-65.1
		c0-2.1,0.7-4.5-1.4-7c-4.6,0-9.5-0.1-14.5,0c-5.1,0.2-10.4-0.8-15.8,0.9c0,2.9,0,5.7,0,8.4c0,53.6,0,107.3,0,160.9
		c0,2.2,0,4.5,0,6.7c-0.3,9.7-6.3,16.1-15.9,16.1c-44.7,0.1-89.3,0.1-134,0c-9,0-15-5.9-15.7-14.8c-0.2-2.2-0.1-4.5-0.1-6.7
		c0-54.1,0-108.3,0-162.4C153.1,937.4,153.1,934.7,153.1,931z M518.7,1124.3c-1.5-2.3-2.6-4-3.5-5.7c-6.6-12-13.1-24.1-19.7-36.1
		c-26.2-48.2-52.4-96.3-78.6-144.5c-1.3-2.4-2.7-4.7-4-7c-11.4,0-22.4,0-33.3,0c-0.7,0-1.4,0.3-3.1,0.8
		c8.1,15.2,16.4,29.8,24.5,44.6c8.3,15.1,16.6,30.1,24.9,45.2c8.2,14.8,16.4,29.7,24.6,44.5c8.3,15.1,16.6,30.2,24.9,45.2
		c8.2,14.8,16.1,29.7,24.5,44.2c12.7,0,24.8,0,37.1,0c1.3-2.3,2.6-4.5,3.8-6.7c29.7-53.6,59.4-107.3,89.1-160.9
		c9.4-17,18.8-34,28.2-51.1c0.9-1.6,2.7-3.2,1.6-5.4c-8.9-0.8-30.3-0.6-36.1,0.4c-11.6,21.2-23.2,42.7-34.9,64.1
		c-11.6,21.2-23.1,42.5-34.6,63.7C542.3,1081,530.9,1102.5,518.7,1124.3z M977.4,962.9c3.8-0.1,6.5-0.2,9.2-0.2
		c26.9,0,53.9,0,80.8,0c2.4,0,5,0.9,7.3-1.5c-0.1-9.7,0.4-19.5-0.3-29.9c-3.1-0.1-5.8-0.3-8.5-0.3c-26.9,0-53.9,0-80.8,0
		c-2.4,0-5,0.7-7.6-1.3c0-2.2,0-4.7,0-7.1c0-19.7,0-39.4,0-59.1c0-1.9,0.6-4-1.5-6.1c-4.5,0-9.5-0.1-14.5,0
		c-5.1,0.2-10.4-0.9-15.7,0.9c0,2.9,0,5.6,0,8.4c0,78.8,0,157.6,0,236.4c0,3.2-0.1,6.5,0.2,9.7c0.2,2.7,0.5,5.5,1.2,8.1
		c4,17.4,21.4,35,44.1,34.9c26.2-0.1,52.4,0,78.5,0c1.4,0,2.9-0.3,4.2-0.4c1.2-6.8,1.2-24.9-0.1-31c-2.3-0.1-4.8-0.3-7.2-0.3
		c-23.2,0-46.4,0-69.6,0c-2,0-4,0.1-6-0.1c-7.3-0.7-12.9-6.4-13.5-13.7c-0.2-2-0.1-4-0.1-6c0-44.4,0-88.8,0-133.2
		C977.4,968.7,977.4,966.2,977.4,962.9z M774.3,1372.5c0.1-2.8,0.3-5,0.3-7.2c0-8-0.2-16,0.1-23.9c0.1-4.2,0.7-8.5,1.8-12.5
		c1.5-5.3,5.5-8.2,10.9-8.8c2-0.2,4-0.2,6,0c4.8,0.5,7.9,3,9,7.6c0.7,2.9,0.9,5.9,0.9,8.9c0.1,10.2,0,20.4,0.1,30.7
		c0,1.7,0.3,3.3,0.5,5.2c1.5,0.1,2.8,0.3,4,0.3c1.4-0.1,2.8-0.3,4.6-0.6c0.1-2.3,0.3-4.3,0.3-6.2c0-9-0.1-18,0.1-26.9
		c0.1-3.4,0.6-7,1.6-10.2c1.6-5.3,5.5-8.1,11-8.7c2-0.2,4-0.2,6-0.1c4.5,0.3,7.6,2.6,8.9,6.8c0.8,2.6,1.1,5.4,1.1,8.1
		c0.1,10.2,0,20.4,0.1,30.7c0,2.2,0.2,4.4,0.4,6.6c3.1,0.9,5.6,0.9,8.2,0.1c0.2-1.1,0.5-1.8,0.5-2.5c0-12.7,0.1-25.4,0-38.1
		c0-2.2-0.3-4.5-0.8-6.7c-1.4-5.7-4.7-10-10.5-11.7c-9.4-2.7-18.3-1.9-25.6,5.5c-0.9,0.9-1.8,1.7-2.8,2.6
		c-6.1-9.2-14.7-10.7-24.5-8.6c-4,0.8-7.3,3.1-10.1,6.1c-0.4,0.4-1.2,0.5-1.8,0.7c-0.8-2.2-1.6-4.3-2.4-6.5
		c-2.3,0.1-4.2,0.2-6.3,0.3c-0.2,1.2-0.6,2.2-0.6,3.2c0,17.9,0,35.9,0.1,53.8c0,0.7,0.4,1.4,0.8,2.3
		C768.6,1372.5,771,1372.5,774.3,1372.5z M952.6,1372.4c1.8,0,3.6,0,4.9,0c2.4-1.7,1.1-4.9,3.9-5.9c0.8,0.6,1.6,1.3,2.3,1.9
		c15.1,11.9,34.6,5.3,39.3-13.2c2.1-8.1,2.2-16.3,0-24.4c-0.8-2.8-2-5.7-3.4-8.2c-2.6-4.4-6.3-7.8-11.4-9.2
		c-7.9-2.1-15.8-2-22.9,2.8c-1.1,0.8-2,2.4-4.2,1.6c-0.1-1.3-0.2-2.7-0.2-4.1c0-7.2,0.1-14.4,0-21.7c0-1.4-0.5-2.8-0.8-4.2
		c-1.6-0.1-2.9-0.3-4.1-0.3c-1.2,0.1-2.4,0.4-3.4,0.5C951.6,1294.8,951.6,1365.9,952.6,1372.4z M552,1344.7
		c0.7-6.2,0.4-11.4-1.3-16.4c-2.5-7.6-7.3-13.1-15.1-15.3c-12.6-3.6-26.1,1.1-31.5,15.6c-3.3,8.9-3.6,18.1-0.8,27.2
		c3,9.6,9.5,15.8,19.4,17.7c8.9,1.7,17.8,1.1,26.2-3c1-2.7,1.1-5-0.1-7.7c-2,0.5-3.9,1.1-5.7,1.6c-5.1,1.3-10.3,2.1-15.5,1.4
		c-10.7-1.3-16.3-8.7-15.3-20.4C525.2,1344.5,538.3,1345.5,552,1344.7z M1147.7,1344.4c1.2-6.8,0.3-13.1-2.4-19.2
		c-2.7-6-7.2-10.3-13.5-12.1c-12.7-3.8-26.3,0.8-31.8,15c-3.6,9.4-3.8,19-0.6,28.6c2.5,7.5,7.5,13,15.1,15.6
		c10.3,3.5,20.5,2.6,30.3-1.8c0.7-2.9,1.1-5.3-0.4-7.7c-2,0.6-3.9,1.2-5.8,1.7c-5.9,1.3-11.8,2.3-17.8,0.9c-9-2-14.2-10-12.5-20
		c6.3-0.6,12.8-0.1,19.2-0.3C1134.1,1344.7,1140.9,1345.7,1147.7,1344.4z M235.5,1344.9c0-3.2,0.1-5.4,0-7.6c-0.2-2.5-0.3-5-1-7.4
		c-2.2-7.9-6.7-14.1-14.7-16.6c-14.4-4.4-27.5,1.7-32.5,15.8c-2.9,8.2-3.2,16.7-1,25c2.2,8.4,7.1,14.9,15.5,17.9
		c10.6,3.7,21,2.7,30.9-1.7c0.6-4.5,0.6-4.5-0.8-7.6c-1.9,0.6-3.7,1.3-5.6,1.7c-5.1,1.2-10.3,2.1-15.5,1.3
		c-10.5-1.5-16.2-8.8-15.3-20.3c6.3-1.1,12.8-0.4,19.2-0.5C221.2,1344.8,227.9,1344.9,235.5,1344.9z M-159.6,1372.2
		c0.3-1,0.6-1.7,0.6-2.4c0-12.4,0.1-24.9,0-37.3c0-2.7-0.6-5.5-1.3-8.1c-1.4-5.1-4.6-8.9-9.6-10.6c-9.5-3.3-18.6-2.9-26.8,3.7
		c-0.9,0.7-1.8,1.5-3.2,2.7c-0.6-2.2-1-3.8-1.6-5.3c-0.2-0.6-0.8-1.2-1.4-1.9c-1.2,0-2.4-0.1-3.7,0c-0.7,0.1-1.4,0.4-2.5,0.7
		c-0.6,4.9-0.2,9.8-0.3,14.8c-0.1,4.7,0,9.5,0,14.2c0,5-0.1,10,0,14.9s-0.7,9.9,0.7,14.8c2.9,0.5,5.5,1,8.4-0.4
		c0.1-2.2,0.2-4.5,0.3-6.7c0-7.2,0-14.4,0-21.7c0-3,0.2-6,0.5-8.9c1.4-10.2,6.7-14.8,17.1-14.8c1.2,0,2.5,0,3.7,0.2
		c5.2,0.7,8.6,3.8,9.5,9c0.5,2.7,0.6,5.4,0.6,8.2c0.1,9.5,0,18.9,0,28.4c0,2.2,0.2,4.3,0.4,6.7c2.2,0.1,3.9,0.3,5.6,0.3
		C-161.5,1372.8-160.6,1372.4-159.6,1372.2z M-8.2,1343.2c-0.1,0-0.3-0.1-0.4-0.1c-0.1-2.5-0.1-5-0.5-7.4
		c-1.9-13.7-11.1-22.8-24.7-23.7c-16.2-1.1-26.2,7.7-29,21.9c-1.1,5.4-1.1,10.8-0.2,16.3c2.3,14.7,12.9,24.8,29.1,23.9
		c11.2-0.7,20-7,23.3-17.8C-9.3,1352.1-8.9,1347.6-8.2,1343.2z M79.6,1316.8c-0.5,2.9,0.5,4.8,2.4,6.6c2-0.6,4.1-1.4,6.2-1.9
		c2.9-0.7,5.8-1.5,8.8-1.6c9.3-0.5,13.4,3.3,13.9,12.5c0.1,1.7-0.3,3.3-0.5,5.3c-1.8,0.1-3.3,0.3-4.7,0.3c-4,0.1-8,0.1-11.9,0.2
		c-4.5,0.2-8.9,1.3-12.9,3.3c-6.6,3.4-9.7,9.5-8.8,17.4c0.8,7.1,4.5,12,11.4,14.1c6.2,1.9,12.4,1.7,18.3-0.9
		c2.9-1.2,5.3-3.7,7.9-5.5c0.3-0.2,0.9-0.1,1.8-0.1c0.6,1.9,1.3,3.9,2.1,6.2c2.1-0.1,4-0.2,6-0.4c0.2-1.4,0.4-2.4,0.4-3.4
		c0-12.7,0-25.4,0-38.1c0-2.2-0.3-4.5-0.8-6.6c-1.3-5.5-4.7-9.4-10.2-10.9C98.6,1310.4,88.8,1311.9,79.6,1316.8z M873.9,1342
		c0.3,3.9,0.4,6.7,0.8,9.4c0.2,1.7,0.8,3.4,1.4,5c4.4,12.4,14.8,18.8,28.7,17.6c12-1,20.9-9.2,23.3-21.6c1.2-6.2,1.3-12.3,0-18.5
		c-2.6-12.7-11.1-20.8-24-21.9c-14.3-1.2-25.3,5.8-28.7,19.4C874.5,1335.2,874.3,1339.2,873.9,1342z M377.1,1372.9
		c0.1-2.9,0.2-4.9,0.3-6.8c0-8-0.1-16,0.1-23.9c0.1-3.5,0.5-7,1.2-10.4c1.6-7.3,6.1-11.1,13.5-11.7c2.2-0.2,4.5-0.2,6.7,0.1
		c5.2,0.6,8.7,3.8,9.7,8.9c0.4,2.2,0.4,4.5,0.4,6.7c0,10,0,19.9,0,29.9c0,2.2,0.2,4.4,0.3,6.5c3.2,0.7,5.8,1.1,8.6-0.2
		c0.2-1,0.5-2,0.5-3c0-12,0.1-23.9,0-35.9c0-2.5-0.3-5-0.9-7.4c-1.2-5.4-4-9.8-9.4-11.7c-9.7-3.6-19-3.5-27.4,3.5
		c-0.9,0.8-1.9,1.4-3.1,2.4c-0.9-2.5-1.6-4.6-2.3-6.5c-2.4-0.7-4.6-0.9-7,0.4c0,18.3,0,36.5,0,54.6c0,1.2,0.2,2.4,0.4,4
		C371.4,1372.6,373.8,1372.7,377.1,1372.9z M-134.4,1313.3c-0.6,5.2-0.3,10.2-0.3,15.1c-0.1,4.7,0,9.5,0,14.2c0,5-0.1,10,0,15
		c0.1,4.9-0.6,9.9,0.5,14.6c4.6,0.8,4.6,0.8,8.6-0.7c0-2,0-4.2,0-6.5c0-7.5-0.1-15,0.1-22.4c0.1-3.5,0.4-7,1.1-10.4
		c1.7-8,6.4-11.8,14.6-12.3c1.7-0.1,3.5-0.1,5.2,0.1c5.9,0.6,9.5,4.1,10.3,10c0.3,2.2,0.3,4.5,0.3,6.7c0,10.2,0,20.4,0.1,30.7
		c0,1.6,0.4,3.3,0.7,5.2c3-0.2,5.7,0.9,8.2-0.8c0.2-0.9,0.4-1.7,0.4-2.4c0-12,0.1-23.9,0-35.9c0-2.5-0.3-5-0.8-7.4
		c-1.5-7.3-6-11.9-13.3-13.5c-9.2-2-17.9-1.1-25,6c-0.4,0.4-1.2,0.5-1.8,0.7c-0.9-2.3-1.6-4.3-2.5-6.5
		C-130.2,1313-132.1,1313.1-134.4,1313.3z M622.6,1372.5c0.2-1.8,0.4-2.8,0.4-3.7c0-12,0.1-23.9,0-35.9c0-2.7-0.4-5.5-1-8.1
		c-1.2-5.2-4.3-9-9.4-10.9c-9.2-3.4-18-3.2-26.2,2.9c-1.2,0.9-2.3,1.7-3.9,2.9c-0.9-2.4-1.7-4.4-2.5-6.5c-2.1,0-4,0-5.9,0
		c-0.3,1-0.8,1.7-0.8,2.4c0,18.2,0,36.4,0,54.5c0,0.7,0.4,1.4,0.7,2.3c2.7,0.5,5.2,0.7,8.1-0.4c0.1-2.5,0.2-4.7,0.2-6.9
		c0-8.2-0.1-16.4,0.1-24.7c0.1-3.7,0.7-7.5,1.7-11c1.4-4.9,5.1-8.1,10.1-9c3.4-0.6,7-0.6,10.4-0.2c4,0.4,7,2.8,8.1,6.8
		c0.7,2.6,1.2,5.4,1.2,8c0.1,10.7,0,21.4,0.1,32.1c0,1.7,0.3,3.3,0.5,5.3C617.2,1372.5,619.6,1372.5,622.6,1372.5z M37.7,1372.6
		c0.6-1.1,1-1.5,1.1-1.9c6.8-17.9,13.6-35.8,20.4-53.8c0.4-1,0.3-2.3,0.5-3.7c-3.1,0-5.8,0-8.9,0c-2,5.5-4,10.8-5.9,16.2
		c-2,5.6-4,11.3-6.1,16.8c-2,5.2-3.2,10.8-6.5,16.4c-3.2-8.9-6-17.1-9-25.2s-5.4-16.5-9.2-24.2c-3.1,0-5.8,0-8.9,0
		c1.5,7.2,4.6,13.4,6.9,19.9c2.4,6.8,5,13.6,7.7,20.2c2.6,6.4,4.4,13.1,7.8,19.3C31.1,1372.6,34.3,1372.6,37.7,1372.6z
		 M434.2,1313.4c0.2,5.6,3,10.1,4.7,14.9c1.7,5,3.7,9.8,5.6,14.7c2,5.1,3.9,10.3,5.9,15.4c1.9,4.8,3.1,9.9,6.1,14.6
		c3.5-0.5,7,0.7,10.1-0.8c0.4-0.7,0.7-1.1,0.9-1.6c6.9-18.2,13.8-36.3,20.7-54.5c0.3-0.8,0.2-1.8,0.3-2.9c-3.1,0-5.8,0-8.9,0
		c-1.1,2.8-2.3,5.6-3.3,8.3c-4.5,12.4-8.9,24.8-13.4,37.3c-0.4,1.1-0.7,2.5-2.6,2c-5.7-15.8-11.5-31.6-17.2-47.5
		c-2.2-0.1-3.9-0.3-5.7-0.3C436.4,1312.9,435.5,1313.2,434.2,1313.4z M647.7,1320.7c0.2,2.1,0.4,4,0.4,6c0,9,0,17.9,0,26.9
		c0,2.2-0.1,4.5,0.3,6.7c0.7,4.6,2.4,8.7,6.5,11.3c2.8,1.8,5.9,2.6,9.2,2.6c3.7-0.1,7.5,0.4,10.9-2.4c-0.2-1.9-0.3-3.7-0.5-5.7
		c-2.7,0.2-4.9,0.4-7.1,0.4c-5.5,0-8.9-2.9-9.9-8.2c-0.2-1.2-0.3-2.5-0.3-3.7c0-10,0-19.9,0-29.9c0-1.4,0.5-2.8,0.8-4.3
		c5.5-0.2,10.7-0.3,15.8-0.4c1.1-2.7,1.5-4.7-0.6-7.1c-3.6,0-7.6,0.1-11.6,0c-1.4,0-2.8-0.5-4.4-0.8c0-2.3,0-4.3,0-6.3
		c-0.1-2-0.2-3.9-0.4-5.9c-1-0.2-1.7-0.6-2.4-0.5c-0.9,0.1-1.8,0.5-2.6,0.7c-1.5,4.3-2.9,8.3-4.1,11.9c-2.5,1.2-4.6,2.1-6.5,3.2
		c-1.9,1-2.1,2.6-1,4.7C642.5,1320.1,644.9,1320.3,647.7,1320.7z M171.4,1372.6c1.3-2,1.2-4.1,0.4-6.1c-2.9,0-5.6,0.2-8.3,0
		c-4.2-0.3-7-2.5-8-6.6c-0.6-2.1-0.9-4.4-0.9-6.6c-0.1-9.5-0.1-18.9,0-28.4c0-1.4,0.6-2.8,0.9-4.1c5.5-1.1,10.8,0.2,16.3-1
		c0-1.9,0.1-3.5,0-5.2c0-0.4-0.6-0.7-1.3-1.6c-3.6,0-7.5,0.1-11.5,0c-1.4,0-2.8-0.5-4.2-0.8c-0.2-4.4-0.3-8.3-0.5-12.1
		c-4.6-0.5-5-0.4-5.8,1.9c-1.1,3.3-2.1,6.6-3.1,9.9c-2.5,1.2-4.8,2.2-7,3.4c-1.8,1-2.1,2.6-0.6,4.8c2.1,0.2,4.5,0.4,7.2,0.7
		c0.1,2.6,0.3,4.8,0.3,7c0,9-0.1,17.9,0.1,26.9c0,2.7,0.4,5.5,1,8.1c1.4,6.7,6,10.2,12.5,11.1C163,1374.4,167.3,1374.6,171.4,1372.6
		z M1063.6,1288.1c-0.2,1.7-0.4,2.4-0.4,3.2c0,25.9,0,51.7,0,77.6c0,1.2,0.4,2.3,0.7,3.5c3,0.5,5.6,1,8.1-0.3
		c0.2-0.9,0.5-1.6,0.5-2.4c0-26.1,0-52.2,0-78.3c0-1.1-0.6-2.2-0.9-3.3C1068.8,1288.1,1066.4,1288.1,1063.6,1288.1z M1026.7,1313.1
		c-0.4,1.5-0.7,2.3-0.7,3c0,18.4,0.1,36.8,0.2,55.2c0,0.2,0.1,0.5,0.3,0.7c0.1,0.2,0.3,0.4,0.8,0.8c2.6,0.4,5.5,1.1,8.1-0.8
		c0.1-0.7,0.3-1.2,0.3-1.7c0-17.9,0.1-35.8,0-53.8c0-1.1-0.6-2.3-0.9-3.5C1031.9,1313.1,1029.5,1313.1,1026.7,1313.1z
		 M-245.6,1313.1c-1.2,6.7-1.2,53.2,0,59.7c2.7,0.3,5.6,1,8.4-0.7c0.1-0.8,0.4-1.6,0.4-2.3c0-17.7,0-35.3,0-53
		c0-1.2-0.5-2.3-0.8-3.7C-240.3,1313.1-242.8,1313.1-245.6,1313.1z M331.5,1372.3c4.7,0.7,4.7,0.6,8.1-0.7
		c0.9-10.3,0.6-52.4-0.5-58.3c-2.5-0.6-5.1-0.7-7.5,0.1C330.7,1319.9,330.6,1364.7,331.5,1372.3z M696.1,1374.3
		c4.2,0,6.8-2.7,6.8-7.2c0-4.4-2.7-7.5-6.6-7.6s-6.6,2.9-6.7,7.4C689.5,1371.6,691.8,1374.3,696.1,1374.3z M268.2,1367
		c0-4.5-2.4-7.4-6.3-7.5c-4-0.1-7,3.3-6.9,7.8c0,0.7,0.2,1.5,0.3,2.2c0.8,3,2.7,4.5,5.8,4.7C265.7,1374.6,268.2,1372,268.2,1367z
		 M335.7,1290.8c-3-0.2-5.4,2.3-5.6,5.7c-0.2,3.4,1.9,6.1,4.9,6.4s5.6-2,6-5.3C341.3,1294.1,338.9,1291,335.7,1290.8z
		 M-236.4,1296.9c0-3.4-2.2-5.9-5.2-6s-5.3,2.4-5.4,5.7c-0.1,3.8,2.2,6.5,5.5,6.4C-238.4,1302.8-236.4,1300.4-236.4,1296.9z
		 M1036.2,1296.1c-0.3-0.6-0.7-2.4-1.7-3.6c-1.3-1.6-3.3-2.1-5.3-1.3c-2.4,0.9-3.6,2.8-3.6,5.8c0.1,3.4,2.3,5.9,5.2,6
		C1033.8,1303,1036,1300.6,1036.2,1296.1z"/>
	<path class="st1" d="M718.9,486.8c-7.8-9.2-15.5-18.6-24.4-26.9c-10.4-9.7-19.8-20.2-28.7-31.2c-2.8-3.5-5.8-6.9-8.8-10.4
		c-5.9,5.8-11.7,11.3-17.3,16.9c-17.5,17.6-35,35.3-52.5,52.9c-6.5,6.5-13.4,12.7-20.1,19.1c-5.4,5.3-10.7,10.8-16.2,16
		c-9.2,8.7-18.6,17.4-27.9,26c-11.1,10.4-22.8,20-34.7,29.4c-36.5,28.6-76.8,49.4-122.6,58.8c-19.6,4-39.3,6.3-59.3,5.9
		c-68.7-1.2-130.2-22.5-182.6-67.6c-44.1-38-73.2-85.8-88.3-142.2c-7.7-28.6-10.5-57.8-8.4-87.2c5.3-75.4,35.3-139.2,91.2-190.5
		c30.8-28.1,66.1-48.3,106-60.6c21.1-6.5,42.5-10.4,64.6-12.1c16.2-1.2,32.4-1.1,48.5,0.6c38.4,3.9,74.6,15.2,108.4,34.1
		c20,11.2,38.4,24.5,55.1,40.1c5.4,5,10.9,10,16.2,15.1c5.3,5,10.9,10,15.6,15.6c1.8,2.1,3.7,4.3,6.6,6c6.9-5.9,13.3-12.2,20.4-18.6
		c0.6,1.2,1.2,2,1.3,2.9c2.6,18.3,5.2,36.5,7.9,54.8c1.8,12.6,3.7,25.2,5.6,37.8c0.2,1,0.2,2,0.2,3.1c-1-0.1-1.6,0.1-2.1-0.1
		c-30.4-9.2-60.8-18.3-91.2-27.6c-0.3-0.1-0.5-0.5-1-1.1c2.1-3.6,6.6-5.3,8.7-9.3c-1-1.2-1.9-2.3-2.9-3.4
		c-16.2-17.2-33.5-33.3-52.6-47.2c-25.4-18.6-53.8-30.4-84.7-36.4c-20.9-4.1-42-5.2-63.1-3.1c-40.1,3.8-76.5,17.9-108.8,42.2
		c-42.1,31.9-69.6,73.6-81.7,125.1c-4.4,18.7-6.4,37.7-5.4,56.8c2.9,56.4,23.7,105.3,63.8,145.2c31.6,31.3,69.6,50.8,113.5,59.2
		c18.9,3.6,37.9,4.5,57,3c38.4-2.9,73.7-15.1,105.6-36.9c12.3-8.5,24.4-17.5,35.8-27.2c7.2-6.1,13.9-12.8,20.8-19.2
		c5.7-5.3,10.9-11.1,16.8-16.3c12.2-10.8,23-22.9,34.8-34c25.8-24.2,50.2-49.7,75.2-74.5c9.9-9.9,20.1-19.4,29.9-29.2
		c13.9-13.7,27.6-27.5,41.5-41.3c1-1,2.1-2.1,2.7-3.3c0.9-2.1,2.5-3.2,4-4.5c3.1-2.7,6.5-5,8.1-9.1c0.2-0.7,1.2-1.1,1.8-1.6
		c9-6.5,17.9-13.2,25.1-21.7c0.8-0.9,1.7-1.8,2.6-2.6c15.1-12.7,29.8-25.8,46.1-36.9c24-16.6,50.2-27.7,78.9-32.7
		c16.6-2.9,33.4-3.5,50.3-2c26.7,2.4,52.1,9.5,75.5,22.4c52.7,29,85.3,73.2,98.6,131.7c4.4,19.3,4.9,39,3.1,58.7
		c-7.9,88.4-74.8,154-151.7,170.8c-18.3,4-36.9,5.5-55.7,4.2c-41.9-3-78.7-18.3-111-45.1c-13-10.8-25.3-22.2-37.1-34.2
		c-1.6-1.6-3.4-2.9-5.1-4.3C720.2,488.6,719.6,487.7,718.9,486.8z M705,371.9c1.9,3.5,4,6.8,6.2,10c20.9,31.1,44.6,59.9,71.7,85.8
		c13.7,13.1,28.2,25.1,43.9,35.5c14.1,9.3,28.9,17.2,44.9,22.7c25,8.6,50.2,9.6,75.6,2.1c17.9-5.3,33.7-14.2,46-28.3
		c18.9-21.7,23.4-46.3,13.2-73.4c-4.1-11-10.1-21.1-17.3-30.4c-1.1-1.4-2.1-3-3.2-4.5c2.6-3,4.9-5.9,7.2-8.8
		c6.7-8.6,12.8-17.6,16.9-27.8c8.6-21.4,8.1-42.5-3.4-62.8c-5.9-10.5-14.2-19.1-24-26.1c-20.1-14.2-42.7-20.6-67.1-21
		c-17.4-0.3-34.2,3.3-50.6,9.1c-25.8,9-49.4,22.1-71.6,37.7c-27.8,19.5-52.7,42.4-76.3,66.7C713,362.7,709.2,367.3,705,371.9z"/>
	<path class="st1" d="M718.9,486.8c0.7,0.9,1.3,1.8,1.9,2.7c-4.3,4.4-8.6,8.8-12.9,13.3c0.2,0.7,0.3,1.3,0.7,1.7
		c16.6,16.5,33.3,32.9,51.8,47.2c25.8,19.8,54.9,32.7,86.7,39.2c16.1,3.3,32.4,5,48.9,4.6c44.1-1.1,84.4-13.9,120.3-39.6
		c46.2-33,75.6-77.4,87.7-133c5-22.9,5.8-46,3-69.2c-5.4-46.5-23.9-87.2-55.5-121.6c-29.7-32.3-66.2-53.3-108.8-63.8
		c-20.2-5-40.9-7-61.6-6c-40.6,2.1-78.1,14-111.9,37c-21.7,14.9-41.9,31.7-61.4,49.4c-15.7,14.2-30.8,29-45.7,44
		c-18,18.3-36.4,36.1-54.7,54.1c-7.7,7.7-15.6,15.1-23.4,22.7c-2.6,2.6-5.1,5.3-7.7,8c-9.5,9.4-19,18.8-28.4,28.2
		c-16.7,16.7-33.2,33.6-50,50.2c-18.4,18.2-37.4,35.7-58.1,51.3c-9.5,7.2-19.2,14.2-29.1,20.6c-22.9,14.5-47.9,23.3-74.6,27.1
		c-15.9,2.2-31.8,2.1-47.9,0.6c-62.6-5.8-116.2-43.4-146.2-91.3c-12.9-20.6-21.1-42.9-25.4-66.9c-3.2-18.1-3.8-36.4-2-54.6
		c4.2-44.2,21.7-82.6,52.6-114.7c29-30.3,64.6-48.8,105.6-56.9c12.3-2.4,24.8-3.7,37.4-3.6c39,0.3,74.7,11.5,107,33.4
		c8.9,6,17,12.8,24.9,20.1c21.1,19.3,40.9,39.8,60.2,60.8c11.3,12.3,22.5,24.5,33.7,36.9c1.2,1.3,2.3,2.9,3.2,4
		c1.2-0.5,1.6-0.5,2-0.7c4.2-3.9,8.6-7.7,12.7-11.7c26.5-26.1,52.9-52.2,79.4-78.2c22.5-22.1,45.7-43.7,70.5-63.4
		c19.2-15.2,39.1-29.3,61.1-40.1c26-12.7,53.2-21.3,81.9-25.7c16.7-2.6,33.5-3.9,50.3-3.2c63.8,2.6,121.6,22.2,171.1,63.2
		c49.7,41.1,82.1,93.2,96.9,156.1c6.1,25.9,8.7,52.2,7.3,78.8c-1.1,20.2-4.6,39.9-10.2,59.3c-14,48.1-38.9,89.8-75.1,124.5
		c-36,34.6-78.4,57.8-126.9,69.8c-16,3.9-32.2,6.3-48.5,7.7c-16.6,1.3-33.2,1.2-49.8-0.7c-54.1-5.9-102.8-25.8-145.5-59.6
		c-16.3-12.9-31-27.5-45.9-41.9c-2.6-2.6-5.3-5.1-8.1-7.7c-3.1,2.2-5.3,4.9-7.8,7.2c-2.4,2.1-4.3,4.9-7.3,6.7
		c-0.4-0.8-0.8-1.3-1-1.8c-7-30.6-13.9-61.2-20.8-91.8c-0.2-0.7,0-1.6,0-2.3c1.5-1.2,2.9-0.5,4.2-0.2c27.2,6.2,54.4,12.3,81.5,18.4
		C713.7,485.9,716.3,486.3,718.9,486.8z M214.4,369.3c-1.6,2.1-2.8,3.7-4.1,5.3c-6.2,8-11.4,16.6-15.1,25.9
		c-6.7,16.5-8.4,33.3-3.1,50.5c4.8,15.4,14.1,27.8,26.8,37.4c26.1,19.9,55.6,26.2,87.7,21.6c13.7-2,26.6-6.7,39.1-12.6
		c18.3-8.6,35-19.8,50.5-32.7c29.3-24.2,54.7-52,77.7-82c7-9.1,13.6-18.5,19.2-28.5c0.9-1.6,2.3-3,1.8-5.3c-0.7-0.9-1.6-2.1-2.6-3.1
		c-9.5-9.9-18.8-20.1-28.6-29.6c-21.1-20.5-43.9-39-68.6-54.9c-17.6-11.4-36.1-21.1-55.9-28.2c-21.5-7.7-43.4-12-66.4-9.6
		c-22.5,2.4-42.5,10.4-60.1,24.5c-5.9,4.8-11.2,10.3-15.5,16.6c-11.9,17.6-15.8,36.7-10.3,57.4c3.8,14.1,10.6,26.7,19.7,37.9
		C209,363.1,211.6,365.9,214.4,369.3z"/>
	<path class="st1" d="M2777.6,315.2c-1.2-7.2-1.2-25.1,0.1-31.1c1.8-0.1,3.8-0.3,5.7-0.3c58.1,0,116.2-0.1,174.4,0
		c22,0,40.2,13.4,46.1,33.6c1.6,5.3,2,10.7,2,16.3c0,41.4,0,82.8,0,124.2c0,14.2,0,28.4,0,42.7c0,2.4-0.2,4.9-0.3,7.5
		c-1.9,0.2-3.4,0.5-4.8,0.5c-59.4,0-118.7-0.1-178.1,0.1c-23.2,0.1-40.8-18.2-44.5-34.6c-0.8-3.6-1.4-7.4-1.4-11.1
		c-0.1-26.2-0.1-52.4-0.1-78.6c0-1,0.2-1.9,0.4-3.3c1.5-0.3,2.9-0.6,4.3-0.7c2-0.1,4,0,6,0c58.6,0,117.2,0,175.9,0c3,0,6,0,9.3,0
		c0.4-1.7,0.9-3.1,0.9-4.4c0.1-14.7,0.1-29.4,0-44.2c-0.1-9.8-6-15.7-15.8-16.2c-2-0.1-4,0-6,0c-55.4,0-110.8,0-166.1,0
		C2782.9,315.5,2780.2,315.3,2777.6,315.2z M2973.5,476.9c0-7.9,0-14.8,0-21.8c0-7.2,0.1-14.5,0-21.7c-0.1-6.9,0.6-13.8-0.6-20.8
		c-1.4-0.1-2.3-0.3-3.3-0.3c-53.1,0-106.2,0.1-159.3,0.2c-0.2,0-0.5,0.1-0.7,0.2s-0.4,0.3-0.9,0.9c-0.1,1.1-0.2,2.5-0.2,4
		c0,14,0,27.9,0,41.9c0,1.2,0,2.5,0.1,3.7c0.7,7.3,6.3,12.9,13.6,13.6c2,0.2,4,0.1,6,0.1c45.6,0,91.2,0,136.9,0
		C2967.5,476.9,2969.9,476.9,2973.5,476.9z"/>
	<path class="st1" d="M2581.1,476.9c0.1,10.9,0.3,20.8-0.1,30.8c-2.6,1.4-5.1,0.9-7.5,0.9c-23.4,0-46.9,0-70.3,0
		c-33.9,0-67.8,0-101.8,0c-4,0-8,0-11.9-0.8c-21-4.1-36.9-23.2-37.3-44.7c-0.3-13.5-0.1-26.9-0.1-40.4c0-29.9,0-59.9,0-89.8
		c0-5.3,0.5-10.5,1.9-15.5c5.3-18.9,23.4-33,43.1-33.6c1.5-0.1,3,0,4.5,0c43.4,0,86.8,0,130.2,0c5.3,0,10.5,0.4,15.5,1.8
		c17.4,4.8,33.7,21.8,33.9,42.8c0.3,26.7,0.1,53.4,0.1,80.1c0,1-0.2,1.9-0.3,2.8c-2.1,1.7-4.5,1.1-6.6,1.1c-21.2,0.1-42.4,0-63.6,0
		c-39.2,0-78.3,0-117.5,0c-2.7,0-5.5,0-8.5,0c-0.3,1.8-0.8,3.1-0.8,4.5c-0.1,14.2-0.1,28.4,0,42.6c0,2.2,0.3,4.5,0.9,6.6
		c1.7,6,6.8,10.2,13,10.7c2.5,0.2,5,0.1,7.5,0.1c55.6,0,111.2,0,166.8,0C2574.8,476.9,2577.5,476.9,2581.1,476.9z M2549,379.7
		c0.1-1.6,0.3-2.8,0.3-4.1c0-14.2,0-28.4,0-42.6c0-1,0-2-0.1-3c-0.9-8.2-6.4-13.7-14.6-14.5c-1.7-0.2-3.5-0.1-5.2-0.1
		c-41.9,0-83.7,0-125.6,0c-2,0-4-0.1-6,0.2c-5.6,0.7-10,3.5-12.3,8.6c-1.2,2.6-1.6,5.8-1.7,8.7c-0.2,14.2-0.1,28.4-0.1,42.6
		c0,1.4,0.3,2.8,0.4,4.1c1.2,0.4,1.9,0.7,2.6,0.7c53.1,0,106.1,0,159.2,0C2546.9,380.4,2547.6,380.1,2549,379.7z"/>
	<path class="st1" d="M1654.3,508.6c-22.4,0-44.9,0-67.3,0c-15.6,0-27.8-6.7-37.3-18.8c-5.8-7.5-8.9-16.1-9.1-25.6
		c0-1.7,0-3.5,0-5.2c0-41.9,0-83.8,0-125.7c0-4,0-8,0.8-11.9c3.8-20.2,22.7-37.6,45.2-37.6c33.2,0,66.3,0,99.5,0
		c12.5,0,24.9-0.1,37.4,0.1c12.5,0.2,23.3,4.8,32.2,13.6c9.1,9,13.8,20,14,32.8c0.1,10,0,19.9,0,29.9c0,33.2,0,66.3,0,99.5
		c0,5.8-0.6,11.4-2.4,16.9c-4.5,14.6-20.6,32.1-43.5,32C1705.4,508.6,1688.1,508.6,1654.3,508.6L1654.3,508.6z M1654.9,476.9
		c20.9,0,41.9,0,62.8,0c2,0,4,0,6-0.1c6.1-0.3,13.3-6,13.5-13.7c0.1-2.2,0.1-4.5,0.1-6.7c0-40.1,0-80.3,0-120.4c0-2-0.1-4-0.1-6
		c0.1-6.4-5.1-12.8-12.2-14.1c-2.4-0.4-5-0.4-7.4-0.4c-41.9,0-83.8,0-125.6,0c-1.5,0-3-0.1-4.5,0c-8.9,0.6-14.7,6.6-15.2,15.4
		c-0.1,1.2,0,2.5,0,3.7c0,41.1,0,82.3,0,123.4c0,1.7-0.1,3.5,0.1,5.2c0.8,7.2,6.6,12.9,13.8,13.5c2,0.2,4,0.1,6,0.1
		C1613,476.9,1633.9,476.9,1654.9,476.9z"/>
	<path class="st1" d="M1305.9,507.9c-6.3,1-24.7,1-30.6-0.1c-0.2-0.6-0.6-1.3-0.6-2c0-73.1,0-146.2,0-219.3c0-0.7,0.4-1.4,0.8-2.4
		c1.9-0.1,3.9-0.4,5.8-0.4c58.4,0,116.8-0.1,175.2,0c22.1,0,40.6,14,45.8,34.8c1.3,5.2,1.6,10.9,1.6,16.3
		c0.1,30.7,0.1,61.4,0.1,92.1c0,24.2,0,48.4,0,72.6c0,2.7-0.1,5.4-0.1,8c-5.6,1.2-23,1.4-31,0.4c-1.5-2.5-0.8-5.3-0.8-7.9
		c-0.1-28.2,0-56.4,0-84.6c0-26.4,0-52.9,0-79.3c0-2,0.1-4,0-6c-0.4-7.3-5-12.6-12.1-14.2c-1.9-0.4-4-0.5-5.9-0.5
		c-42.9,0-85.8,0-128.7,0c-2.5,0-5,0.3-7.4,0.9c-6.4,1.8-10.5,6.9-11,13.6c-0.2,2.5-0.1,5-0.1,7.5c0,54.1,0,108.3,0,162.4
		C1306.6,502.6,1307.3,505.4,1305.9,507.9z"/>
	<path class="st1" d="M1827,283.8c0,3.7,0,6.5,0,9.2c0,54.1,0,108.3,0,162.4c0,2.2-0.1,4.5,0.1,6.7c0.8,8.9,6.8,14.7,15.7,14.8
		c44.7,0.1,89.3,0.1,134,0c9.6,0,15.6-6.5,15.9-16.1c0.1-2.2,0-4.5,0-6.7c0-53.6,0-107.3,0-160.9c0-2.7,0-5.4,0-8.4
		c5.5-1.7,10.7-0.7,15.8-0.9c4.9-0.2,9.9,0,14.5,0c2,2.5,1.3,4.8,1.4,7c0.1,21.7,0,43.4,0,65.1c0,34.4,0,68.9,0,103.3
		c0,4.2-0.2,8.5-0.9,12.6c-3.7,19.5-22.6,37-45,36.9c-28.2-0.2-56.4,0-84.6,0c-17.2,0-34.4-0.1-51.6,0c-13.5,0.1-24.7-4.9-34-14.6
		c-8.3-8.7-12.5-19.1-12.9-31c-0.1-1.7,0-3.5,0-5.2c0-55.1,0-110.3,0-165.4c0-2.5,0-4.9,0-7.7c5.4-1.7,10.7-0.7,15.8-0.9
		C1816,283.6,1820.9,283.8,1827,283.8z"/>
	<path class="st1" d="M2192.6,477.1c12.2-21.9,23.7-43.3,35.3-64.7c11.6-21.2,23.1-42.5,34.6-63.7c11.7-21.4,23.3-42.9,34.9-64.1
		c5.7-1,27.2-1.2,36.1-0.4c1,2.3-0.7,3.8-1.6,5.4c-9.3,17-18.8,34.1-28.2,51.1c-29.7,53.6-59.4,107.3-89.1,160.9
		c-1.2,2.2-2.4,4.3-3.8,6.7c-12.3,0-24.4,0-37.1,0c-8.4-14.5-16.3-29.4-24.5-44.2c-8.4-15-16.6-30.1-24.9-45.2
		c-8.2-14.8-16.4-29.7-24.6-44.5c-8.3-15.1-16.6-30.1-24.9-45.2c-8.1-14.7-16.4-29.4-24.5-44.6c1.8-0.5,2.5-0.8,3.1-0.8
		c11,0,21.9,0,33.3,0c1.3,2.3,2.8,4.6,4,7c26.2,48.2,52.4,96.3,78.6,144.5c6.6,12,13.1,24.1,19.7,36.1
		C2190,473.2,2191.1,474.8,2192.6,477.1z"/>
	<path class="st1" d="M2651.3,315.7c0,3.3,0,5.7,0,8.2c0,44.4,0,88.8,0,133.2c0,2-0.1,4,0.1,6c0.6,7.3,6.2,13,13.5,13.7
		c2,0.2,4,0.1,6,0.1c23.2,0,46.4,0,69.6,0c2.4,0,4.9,0.2,7.2,0.3c1.3,6.1,1.3,24.2,0.1,31c-1.3,0.1-2.8,0.4-4.2,0.4
		c-26.2,0-52.4-0.1-78.5,0c-22.8,0.1-40.1-17.5-44.1-34.9c-0.6-2.7-1-5.4-1.2-8.1c-0.2-3.2-0.2-6.5-0.2-9.7c0-78.8,0-157.6,0-236.4
		c0-2.7,0-5.5,0-8.4c5.4-1.8,10.6-0.7,15.7-0.9c5-0.2,9.9,0,14.5,0c2.1,2.1,1.5,4.2,1.5,6.1c0,19.7,0,39.4,0,59.1c0,2.5,0,4.9,0,7.1
		c2.7,2,5.3,1.3,7.6,1.3c26.9,0.1,53.9,0,80.8,0c2.7,0,5.4,0.2,8.5,0.3c0.7,10.3,0.2,20.2,0.3,29.9c-2.3,2.4-5,1.5-7.3,1.5
		c-26.9,0.1-53.9,0-80.8,0C2657.8,315.5,2655.1,315.6,2651.3,315.7z"/>
	<path class="st1" d="M697.1,376.7c-0.7,0.8-1.2,1.6-1.9,2.4c-0.3-0.3-0.7-0.7-1.1-1.1c0.7-0.7,1.5-1.3,2.2-2
		C696.6,376.3,696.9,376.6,697.1,376.7z"/>
	<path class="st1" d="M696.4,376.1c0.7-0.9,1.2-1.8,2.3-3.3c0.5,2.4-0.7,3.1-1.6,3.9C696.9,376.6,696.6,376.3,696.4,376.1z"/>
	<path class="st1" d="M666.3,407.5c-0.2,0.5-0.4,1.2-0.7,1.6c-0.2,0.2-0.7,0.2-1,0.2c0-0.3-0.1-0.7,0.1-1c0.4-0.4,0.9-0.7,1.3-1.2
		C666,407.2,666.3,407.5,666.3,407.5z"/>
	<path class="st1" d="M670.1,403.9c-0.4,0.4-0.8,0.8-1.3,1.2c-0.2-0.2-0.3-0.3-0.5-0.5c0.4-0.4,0.8-0.8,1.2-1.2
		C669.7,403.5,669.9,403.7,670.1,403.9z"/>
	<path class="st1" d="M667.5,406.3c-0.4,0.4-0.8,0.8-1.3,1.2l-0.3-0.3c0.4-0.4,0.8-0.8,1.2-1.2C667.3,406,667.4,406.2,667.5,406.3z"
		/>
</g>
</svg>
